<svg width="41" height="41" viewBox="0 0 41 41" fill="none" xmlns="http://www.w3.org/2000/svg">
<g clip-path="url(#clip0_421:139)">
<path d="M32.0579 7.72871H32.0552H28.8674V6.44076C28.8674 6.08359 28.6662 5.83015 28.4124 5.67792C28.166 5.53005 27.8583 5.46702 27.577 5.46702H25.0821C24.3711 3.65446 22.7264 2.75446 20.887 2.75293C19.0498 2.68583 17.3741 3.77581 16.6848 5.46702H14.2328C13.9513 5.46702 13.652 5.5302 13.4144 5.68137C13.1677 5.83839 12.9877 6.09321 12.9877 6.44076V7.72871H9.79974V7.7287L9.79708 7.72873C7.62734 7.75187 5.85226 9.4635 5.75028 11.6309L5.75 11.6309V11.6427V37.5622C5.75 39.7219 7.70488 41.25 9.79974 41.25H32.0552C34.1501 41.25 36.105 39.7219 36.105 37.5622V11.6428H36.1053L36.1047 11.631C36.0027 9.46351 34.2276 7.75187 32.0579 7.72871ZM26.5581 7.77641V10.8952H15.297V7.77641H17.5349H17.5501L17.5652 7.77457C18.1063 7.70855 18.5414 7.29832 18.6394 6.76252C18.8832 5.7123 19.8043 4.95832 20.8818 4.92676C21.9481 4.96229 22.8541 5.71817 23.0798 6.7612C23.1829 7.31676 23.6473 7.73346 24.211 7.77571L24.2203 7.77641H24.2297H26.5581ZM9.8021 10.0382H12.9876V12.0952V12.1069L12.9887 12.1186C13.0488 12.7566 13.5996 13.2344 14.2389 13.2047H27.5705C28.2153 13.2363 28.7779 12.7695 28.865 12.1289L28.8673 12.1121V12.0952V10.0381H32.0528C32.9603 10.0558 33.7097 10.7515 33.7955 11.6542L33.7956 37.5623C33.7956 37.9678 33.5953 38.3059 33.2726 38.5504C32.9466 38.7974 32.5031 38.9407 32.0552 38.9407H9.79974C9.35186 38.9407 8.90841 38.7974 8.58234 38.5504C8.25964 38.3059 8.05939 37.9678 8.05939 37.5623V11.6543C8.14522 10.7515 8.89455 10.0558 9.8021 10.0382Z" fill="#24306A" stroke="#24306A" stroke-width="0.5"/>
<path d="M16.009 22.9931L16.009 22.9931C16.4714 22.5705 17.1858 22.5941 17.6195 23.0444C17.6406 23.064 17.6613 23.0848 17.6813 23.107C17.6815 23.1073 17.6818 23.1076 17.6821 23.1079L17.4963 23.2751C17.8172 23.6248 17.7939 24.1686 17.4441 24.4895L16.009 22.9931ZM16.009 22.9931L16.0052 22.9967L13.29 25.5845L12.2419 24.4975C11.8087 24.0417 11.0903 24.0164 10.626 24.4406L10.6197 24.4463L10.6138 24.4525C10.1712 24.9162 10.1712 25.6458 10.6138 26.1095L10.6138 26.1096L10.6158 26.1116L12.4667 28.0077C12.6759 28.2393 12.9762 28.3675 13.2882 28.3582C13.5904 28.3533 13.8786 28.2301 14.0909 28.0152L17.6147 24.6722L16.009 22.9931Z" fill="#24306A" stroke="#24306A" stroke-width="0.5"/>
<path d="M30.4268 24.9179H20.0229C19.3851 24.9179 18.8682 25.4349 18.8682 26.0726C18.8682 26.7104 19.3851 27.2273 20.0229 27.2273H30.4268C31.0646 27.2273 31.5815 26.7104 31.5815 26.0726C31.5815 25.4349 31.0646 24.9179 30.4268 24.9179Z" fill="#24306A" stroke="#24306A" stroke-width="0.5"/>
<path d="M16.009 15.7556L16.009 15.7556C16.4714 15.333 17.1858 15.3566 17.6195 15.8069C17.6406 15.8266 17.6613 15.8474 17.6813 15.8695C17.6815 15.8698 17.6818 15.8701 17.6821 15.8704L17.4963 16.0377C17.8172 16.3874 17.7939 16.9311 17.4441 17.252L16.009 15.7556ZM16.009 15.7556L16.0052 15.7592L13.29 18.347L12.2419 17.26C11.8087 16.8043 11.0903 16.7788 10.626 17.2031L10.6197 17.2089L10.6138 17.215C10.1712 17.6788 10.1712 18.4084 10.6138 18.8721L10.6138 18.8721L10.6158 18.8741L12.4667 20.7703C12.6759 21.0018 12.9762 21.13 13.2882 21.1207C13.5904 21.1159 13.8786 20.9927 14.091 20.7777L17.6147 17.4347L16.009 15.7556Z" fill="#24306A" stroke="#24306A" stroke-width="0.5"/>
<path d="M30.4268 17.6803H20.0229C19.3851 17.6803 18.8682 18.1973 18.8682 18.835C18.8682 19.4728 19.3851 19.9897 20.0229 19.9897H30.4268C31.0646 19.9897 31.5815 19.4728 31.5815 18.835C31.5815 18.1973 31.0646 17.6803 30.4268 17.6803Z" fill="#24306A" stroke="#24306A" stroke-width="0.5"/>
<path d="M30.4268 32.1554H20.0229C19.3851 32.1554 18.8682 32.6724 18.8682 33.3101C18.8682 33.9478 19.3851 34.4648 20.0229 34.4648H30.4268C31.0646 34.4648 31.5815 33.9478 31.5815 33.3101C31.5815 32.6724 31.0646 32.1554 30.4268 32.1554Z" fill="#24306A" stroke="#24306A" stroke-width="0.5"/>
</g>
<defs>
<clipPath id="clip0_421:139">
<rect width="41" height="41" fill="white"/>
</clipPath>
</defs>
</svg>
