<svg width="41" height="41" viewBox="0 0 41 41" fill="none" xmlns="http://www.w3.org/2000/svg">
<g clip-path="url(#clip0_421:125)">
<path d="M36.6858 10.788C35.8366 11.1988 35.4813 12.2207 35.8921 13.0694C37.0144 15.3879 37.5833 17.887 37.5833 20.5C37.5833 29.9196 29.9196 37.5833 20.5 37.5833C11.0804 37.5833 3.41667 29.9196 3.41667 20.5C3.41667 11.0804 11.0804 3.41667 20.5 3.41667C24.4034 3.41667 28.0703 4.69124 31.1053 7.10235C31.8415 7.69 32.9179 7.56697 33.5056 6.82833C34.0933 6.09011 33.9702 5.01489 33.2312 4.42807C29.6381 1.57237 25.1166 0 20.5 0C9.19689 0 0 9.19689 0 20.5C0 31.8031 9.19689 41 20.5 41C31.8031 41 41 31.8031 41 20.5C41 17.3678 40.316 14.3661 38.9672 11.5817C38.5572 10.7309 37.532 10.3764 36.6858 10.788Z" fill="#24306A"/>
<path d="M20.5 6.83334C19.557 6.83334 18.7917 7.59867 18.7917 8.54168V20.5C18.7917 21.443 19.557 22.2083 20.5 22.2083H29.0417C29.9847 22.2083 30.75 21.443 30.75 20.5C30.75 19.557 29.9847 18.7917 29.0417 18.7917H22.2083V8.54168C22.2083 7.59867 21.443 6.83334 20.5 6.83334Z" fill="#24306A"/>
</g>
<defs>
<clipPath id="clip0_421:125">
<rect width="41" height="41" fill="white"/>
</clipPath>
</defs>
</svg>
