<svg width="53" height="53" viewBox="0 0 53 53" fill="none" xmlns="http://www.w3.org/2000/svg">
<g clip-path="url(#clip0_421:149)">
<mask id="path-1-outside-1_421:149" maskUnits="userSpaceOnUse" x="0.152161" y="7.0652" width="54" height="38" fill="black">
<rect fill="white" x="0.152161" y="7.0652" width="54" height="38"/>
<path d="M52.9277 27.6584C52.7419 26.3359 51.3584 25.2779 48.7671 24.5048C46.6713 23.8842 44.018 23.5078 41.1272 23.4468V12.5922C41.1272 12.3684 41.055 12.1547 40.9104 11.9818C40.5697 10.8017 39.1863 9.84548 36.7911 9.13337C34.4682 8.4416 31.4329 8.0652 28.2427 8.0652C25.0629 8.0652 22.0585 8.4416 19.7872 9.13337C17.9186 9.70305 15.6782 10.761 15.6782 12.582C15.6782 12.6939 15.6885 12.8058 15.7092 12.9177L15.8228 17.5566C9.1224 16.285 2.64916 20.6289 1.36897 27.2413C1.22443 27.9839 1.15216 28.7469 1.15216 29.5099C1.15216 36.2241 6.69622 41.687 13.5102 41.687C16.3493 41.687 19.0955 40.7205 21.3049 38.9606C23.2458 39.4082 25.5171 39.6524 27.9227 39.6727C28.4492 42.4906 34.6437 43.7826 40.4252 43.7826C43.605 43.7826 46.599 43.396 48.891 42.6941C50.77 42.1244 53 41.0562 53 39.2353V28.0551C53 27.9229 52.9793 27.7805 52.9277 27.6584ZM20.4067 11.0764C22.4922 10.4457 25.2797 10.0896 28.253 10.0896C31.2057 10.0896 34.0965 10.4457 36.2026 11.0764C38.4429 11.7478 38.9282 12.4396 38.9282 12.582C38.9282 12.7244 38.443 13.4264 36.1923 14.0876C34.0965 14.7082 31.2057 15.0744 28.253 15.0744C25.4036 15.0744 22.6986 14.7489 20.6441 14.1588C18.4244 13.5281 17.805 12.8262 17.7534 12.6024C17.7534 12.582 17.7534 12.5718 17.7431 12.5718C17.7534 12.4294 18.2283 11.7377 20.4067 11.0764ZM39.0624 15.1253V17.7295C38.9695 17.872 38.9179 18.0449 38.9282 18.2179C38.9282 18.3501 38.443 19.052 36.1923 19.7235C34.0965 20.344 31.1954 20.7102 28.2427 20.7102C25.6926 20.7102 23.1942 20.4457 21.212 19.9473C21.181 19.9371 21.1603 19.9371 21.1294 19.9269C20.1486 19.1639 19.0645 18.5637 17.8979 18.1263L17.8256 15.2575C18.538 15.6136 19.2813 15.8984 20.0557 16.1019C22.296 16.7428 25.1971 17.0886 28.2427 17.0886C31.4329 17.0886 34.4682 16.7122 36.7808 16.0205C37.5757 15.8069 38.3397 15.5017 39.0624 15.1253ZM20.4377 37.0074C16.2357 40.7816 9.7212 40.4764 5.90126 36.336C2.08133 32.1956 2.38073 25.7764 6.58266 22.0124C8.4823 20.3135 10.9498 19.3674 13.5102 19.3674C14.5426 19.3674 15.575 19.52 16.5661 19.815C20.1383 20.9239 22.8329 23.8435 23.6072 27.4549C23.7414 28.1264 23.8136 28.8181 23.8136 29.4997C23.8136 32.3685 22.5851 35.0949 20.4377 37.0074ZM23.06 37.2312C23.8962 36.2241 24.5673 35.0949 25.0422 33.8843C25.9198 33.9555 26.8489 34.0063 27.7988 34.0165V34.1996L27.8504 37.6483C26.2501 37.6279 24.6499 37.4855 23.06 37.2312ZM25.8062 28.2993C26.4153 28.34 27.0451 28.3603 27.6852 28.3705C27.6852 28.3909 27.6955 28.4214 27.6955 28.4417L27.7575 31.9717C27.0245 31.9616 26.3121 31.9311 25.6204 31.8802C25.7752 31.0969 25.8578 30.2932 25.8578 29.4997C25.8681 29.103 25.8475 28.7062 25.8062 28.2993ZM28.3459 26.3461C28.315 26.3461 28.284 26.3461 28.253 26.3461C27.2619 26.3461 26.3018 26.3054 25.4139 26.2443C25.0216 24.8812 24.4021 23.5994 23.5659 22.46C25.1145 22.6533 26.6734 22.755 28.2427 22.755C31.4329 22.755 34.4682 22.3786 36.7911 21.6868C37.586 21.4427 38.3397 21.1477 39.0624 20.7713V23.4671C34.623 23.5892 30.0391 24.5048 28.3459 26.3461ZM29.7294 27.9127C29.8326 27.6279 30.5863 26.9666 32.7027 26.3766C34.7159 25.8171 37.3383 25.5119 40.0948 25.5119H40.229C43.1817 25.5119 46.0725 25.8476 48.1786 26.4783C50.357 27.1294 50.8732 27.7805 50.9042 27.9534V27.9636C50.8939 28.1162 50.3777 28.8181 48.0857 29.4895C45.9692 30.1101 43.1817 30.4458 40.229 30.4458C37.4415 30.4458 34.7779 30.1304 32.7337 29.5709C30.7618 29.0216 29.9668 28.401 29.7707 28.0857C29.7603 28.0246 29.75 27.9636 29.7294 27.9127ZM50.9352 39.2353C50.9352 39.3777 50.4706 40.0796 48.2819 40.751C46.1861 41.3919 43.3985 41.748 40.4252 41.748C37.4415 41.748 34.654 41.4021 32.5892 40.7816C30.4004 40.1203 29.9565 39.4387 29.9565 39.2861C29.9565 39.276 29.9565 39.276 29.9565 39.2658L29.9049 36.3258C32.362 37.5567 36.4607 38.1162 40.2187 38.1162C43.4089 38.1162 46.4235 37.7398 48.7361 37.0481C49.5001 36.8243 50.2331 36.5191 50.9352 36.1528V39.2353ZM50.8422 33.5994C50.8422 33.7418 50.3673 34.4336 48.1373 35.105C46.0209 35.7358 43.2127 36.0816 40.2187 36.0816C34.5508 36.0816 30.7102 34.8304 29.8636 33.8436L29.8429 32.9687L29.8016 30.6391C30.5553 31.0155 31.3399 31.3105 32.1555 31.5241C34.3752 32.1345 37.235 32.4804 40.2084 32.4804C43.3469 32.4804 46.3409 32.1142 48.6432 31.4428C49.4382 31.2189 50.2021 30.9239 50.9248 30.5475V33.162H50.9352C50.9352 33.2942 50.8422 33.4468 50.8422 33.5994Z"/>
</mask>
<path d="M52.9277 27.6584C52.7419 26.3359 51.3584 25.2779 48.7671 24.5048C46.6713 23.8842 44.018 23.5078 41.1272 23.4468V12.5922C41.1272 12.3684 41.055 12.1547 40.9104 11.9818C40.5697 10.8017 39.1863 9.84548 36.7911 9.13337C34.4682 8.4416 31.4329 8.0652 28.2427 8.0652C25.0629 8.0652 22.0585 8.4416 19.7872 9.13337C17.9186 9.70305 15.6782 10.761 15.6782 12.582C15.6782 12.6939 15.6885 12.8058 15.7092 12.9177L15.8228 17.5566C9.1224 16.285 2.64916 20.6289 1.36897 27.2413C1.22443 27.9839 1.15216 28.7469 1.15216 29.5099C1.15216 36.2241 6.69622 41.687 13.5102 41.687C16.3493 41.687 19.0955 40.7205 21.3049 38.9606C23.2458 39.4082 25.5171 39.6524 27.9227 39.6727C28.4492 42.4906 34.6437 43.7826 40.4252 43.7826C43.605 43.7826 46.599 43.396 48.891 42.6941C50.77 42.1244 53 41.0562 53 39.2353V28.0551C53 27.9229 52.9793 27.7805 52.9277 27.6584ZM20.4067 11.0764C22.4922 10.4457 25.2797 10.0896 28.253 10.0896C31.2057 10.0896 34.0965 10.4457 36.2026 11.0764C38.4429 11.7478 38.9282 12.4396 38.9282 12.582C38.9282 12.7244 38.443 13.4264 36.1923 14.0876C34.0965 14.7082 31.2057 15.0744 28.253 15.0744C25.4036 15.0744 22.6986 14.7489 20.6441 14.1588C18.4244 13.5281 17.805 12.8262 17.7534 12.6024C17.7534 12.582 17.7534 12.5718 17.7431 12.5718C17.7534 12.4294 18.2283 11.7377 20.4067 11.0764ZM39.0624 15.1253V17.7295C38.9695 17.872 38.9179 18.0449 38.9282 18.2179C38.9282 18.3501 38.443 19.052 36.1923 19.7235C34.0965 20.344 31.1954 20.7102 28.2427 20.7102C25.6926 20.7102 23.1942 20.4457 21.212 19.9473C21.181 19.9371 21.1603 19.9371 21.1294 19.9269C20.1486 19.1639 19.0645 18.5637 17.8979 18.1263L17.8256 15.2575C18.538 15.6136 19.2813 15.8984 20.0557 16.1019C22.296 16.7428 25.1971 17.0886 28.2427 17.0886C31.4329 17.0886 34.4682 16.7122 36.7808 16.0205C37.5757 15.8069 38.3397 15.5017 39.0624 15.1253ZM20.4377 37.0074C16.2357 40.7816 9.7212 40.4764 5.90126 36.336C2.08133 32.1956 2.38073 25.7764 6.58266 22.0124C8.4823 20.3135 10.9498 19.3674 13.5102 19.3674C14.5426 19.3674 15.575 19.52 16.5661 19.815C20.1383 20.9239 22.8329 23.8435 23.6072 27.4549C23.7414 28.1264 23.8136 28.8181 23.8136 29.4997C23.8136 32.3685 22.5851 35.0949 20.4377 37.0074ZM23.06 37.2312C23.8962 36.2241 24.5673 35.0949 25.0422 33.8843C25.9198 33.9555 26.8489 34.0063 27.7988 34.0165V34.1996L27.8504 37.6483C26.2501 37.6279 24.6499 37.4855 23.06 37.2312ZM25.8062 28.2993C26.4153 28.34 27.0451 28.3603 27.6852 28.3705C27.6852 28.3909 27.6955 28.4214 27.6955 28.4417L27.7575 31.9717C27.0245 31.9616 26.3121 31.9311 25.6204 31.8802C25.7752 31.0969 25.8578 30.2932 25.8578 29.4997C25.8681 29.103 25.8475 28.7062 25.8062 28.2993ZM28.3459 26.3461C28.315 26.3461 28.284 26.3461 28.253 26.3461C27.2619 26.3461 26.3018 26.3054 25.4139 26.2443C25.0216 24.8812 24.4021 23.5994 23.5659 22.46C25.1145 22.6533 26.6734 22.755 28.2427 22.755C31.4329 22.755 34.4682 22.3786 36.7911 21.6868C37.586 21.4427 38.3397 21.1477 39.0624 20.7713V23.4671C34.623 23.5892 30.0391 24.5048 28.3459 26.3461ZM29.7294 27.9127C29.8326 27.6279 30.5863 26.9666 32.7027 26.3766C34.7159 25.8171 37.3383 25.5119 40.0948 25.5119H40.229C43.1817 25.5119 46.0725 25.8476 48.1786 26.4783C50.357 27.1294 50.8732 27.7805 50.9042 27.9534V27.9636C50.8939 28.1162 50.3777 28.8181 48.0857 29.4895C45.9692 30.1101 43.1817 30.4458 40.229 30.4458C37.4415 30.4458 34.7779 30.1304 32.7337 29.5709C30.7618 29.0216 29.9668 28.401 29.7707 28.0857C29.7603 28.0246 29.75 27.9636 29.7294 27.9127ZM50.9352 39.2353C50.9352 39.3777 50.4706 40.0796 48.2819 40.751C46.1861 41.3919 43.3985 41.748 40.4252 41.748C37.4415 41.748 34.654 41.4021 32.5892 40.7816C30.4004 40.1203 29.9565 39.4387 29.9565 39.2861C29.9565 39.276 29.9565 39.276 29.9565 39.2658L29.9049 36.3258C32.362 37.5567 36.4607 38.1162 40.2187 38.1162C43.4089 38.1162 46.4235 37.7398 48.7361 37.0481C49.5001 36.8243 50.2331 36.5191 50.9352 36.1528V39.2353ZM50.8422 33.5994C50.8422 33.7418 50.3673 34.4336 48.1373 35.105C46.0209 35.7358 43.2127 36.0816 40.2187 36.0816C34.5508 36.0816 30.7102 34.8304 29.8636 33.8436L29.8429 32.9687L29.8016 30.6391C30.5553 31.0155 31.3399 31.3105 32.1555 31.5241C34.3752 32.1345 37.235 32.4804 40.2084 32.4804C43.3469 32.4804 46.3409 32.1142 48.6432 31.4428C49.4382 31.2189 50.2021 30.9239 50.9248 30.5475V33.162H50.9352C50.9352 33.2942 50.8422 33.4468 50.8422 33.5994Z" fill="#24306A"/>
<path d="M52.9277 27.6584C52.7419 26.3359 51.3584 25.2779 48.7671 24.5048C46.6713 23.8842 44.018 23.5078 41.1272 23.4468V12.5922C41.1272 12.3684 41.055 12.1547 40.9104 11.9818C40.5697 10.8017 39.1863 9.84548 36.7911 9.13337C34.4682 8.4416 31.4329 8.0652 28.2427 8.0652C25.0629 8.0652 22.0585 8.4416 19.7872 9.13337C17.9186 9.70305 15.6782 10.761 15.6782 12.582C15.6782 12.6939 15.6885 12.8058 15.7092 12.9177L15.8228 17.5566C9.1224 16.285 2.64916 20.6289 1.36897 27.2413C1.22443 27.9839 1.15216 28.7469 1.15216 29.5099C1.15216 36.2241 6.69622 41.687 13.5102 41.687C16.3493 41.687 19.0955 40.7205 21.3049 38.9606C23.2458 39.4082 25.5171 39.6524 27.9227 39.6727C28.4492 42.4906 34.6437 43.7826 40.4252 43.7826C43.605 43.7826 46.599 43.396 48.891 42.6941C50.77 42.1244 53 41.0562 53 39.2353V28.0551C53 27.9229 52.9793 27.7805 52.9277 27.6584ZM20.4067 11.0764C22.4922 10.4457 25.2797 10.0896 28.253 10.0896C31.2057 10.0896 34.0965 10.4457 36.2026 11.0764C38.4429 11.7478 38.9282 12.4396 38.9282 12.582C38.9282 12.7244 38.443 13.4264 36.1923 14.0876C34.0965 14.7082 31.2057 15.0744 28.253 15.0744C25.4036 15.0744 22.6986 14.7489 20.6441 14.1588C18.4244 13.5281 17.805 12.8262 17.7534 12.6024C17.7534 12.582 17.7534 12.5718 17.7431 12.5718C17.7534 12.4294 18.2283 11.7377 20.4067 11.0764ZM39.0624 15.1253V17.7295C38.9695 17.872 38.9179 18.0449 38.9282 18.2179C38.9282 18.3501 38.443 19.052 36.1923 19.7235C34.0965 20.344 31.1954 20.7102 28.2427 20.7102C25.6926 20.7102 23.1942 20.4457 21.212 19.9473C21.181 19.9371 21.1603 19.9371 21.1294 19.9269C20.1486 19.1639 19.0645 18.5637 17.8979 18.1263L17.8256 15.2575C18.538 15.6136 19.2813 15.8984 20.0557 16.1019C22.296 16.7428 25.1971 17.0886 28.2427 17.0886C31.4329 17.0886 34.4682 16.7122 36.7808 16.0205C37.5757 15.8069 38.3397 15.5017 39.0624 15.1253ZM20.4377 37.0074C16.2357 40.7816 9.7212 40.4764 5.90126 36.336C2.08133 32.1956 2.38073 25.7764 6.58266 22.0124C8.4823 20.3135 10.9498 19.3674 13.5102 19.3674C14.5426 19.3674 15.575 19.52 16.5661 19.815C20.1383 20.9239 22.8329 23.8435 23.6072 27.4549C23.7414 28.1264 23.8136 28.8181 23.8136 29.4997C23.8136 32.3685 22.5851 35.0949 20.4377 37.0074ZM23.06 37.2312C23.8962 36.2241 24.5673 35.0949 25.0422 33.8843C25.9198 33.9555 26.8489 34.0063 27.7988 34.0165V34.1996L27.8504 37.6483C26.2501 37.6279 24.6499 37.4855 23.06 37.2312ZM25.8062 28.2993C26.4153 28.34 27.0451 28.3603 27.6852 28.3705C27.6852 28.3909 27.6955 28.4214 27.6955 28.4417L27.7575 31.9717C27.0245 31.9616 26.3121 31.9311 25.6204 31.8802C25.7752 31.0969 25.8578 30.2932 25.8578 29.4997C25.8681 29.103 25.8475 28.7062 25.8062 28.2993ZM28.3459 26.3461C28.315 26.3461 28.284 26.3461 28.253 26.3461C27.2619 26.3461 26.3018 26.3054 25.4139 26.2443C25.0216 24.8812 24.4021 23.5994 23.5659 22.46C25.1145 22.6533 26.6734 22.755 28.2427 22.755C31.4329 22.755 34.4682 22.3786 36.7911 21.6868C37.586 21.4427 38.3397 21.1477 39.0624 20.7713V23.4671C34.623 23.5892 30.0391 24.5048 28.3459 26.3461ZM29.7294 27.9127C29.8326 27.6279 30.5863 26.9666 32.7027 26.3766C34.7159 25.8171 37.3383 25.5119 40.0948 25.5119H40.229C43.1817 25.5119 46.0725 25.8476 48.1786 26.4783C50.357 27.1294 50.8732 27.7805 50.9042 27.9534V27.9636C50.8939 28.1162 50.3777 28.8181 48.0857 29.4895C45.9692 30.1101 43.1817 30.4458 40.229 30.4458C37.4415 30.4458 34.7779 30.1304 32.7337 29.5709C30.7618 29.0216 29.9668 28.401 29.7707 28.0857C29.7603 28.0246 29.75 27.9636 29.7294 27.9127ZM50.9352 39.2353C50.9352 39.3777 50.4706 40.0796 48.2819 40.751C46.1861 41.3919 43.3985 41.748 40.4252 41.748C37.4415 41.748 34.654 41.4021 32.5892 40.7816C30.4004 40.1203 29.9565 39.4387 29.9565 39.2861C29.9565 39.276 29.9565 39.276 29.9565 39.2658L29.9049 36.3258C32.362 37.5567 36.4607 38.1162 40.2187 38.1162C43.4089 38.1162 46.4235 37.7398 48.7361 37.0481C49.5001 36.8243 50.2331 36.5191 50.9352 36.1528V39.2353ZM50.8422 33.5994C50.8422 33.7418 50.3673 34.4336 48.1373 35.105C46.0209 35.7358 43.2127 36.0816 40.2187 36.0816C34.5508 36.0816 30.7102 34.8304 29.8636 33.8436L29.8429 32.9687L29.8016 30.6391C30.5553 31.0155 31.3399 31.3105 32.1555 31.5241C34.3752 32.1345 37.235 32.4804 40.2084 32.4804C43.3469 32.4804 46.3409 32.1142 48.6432 31.4428C49.4382 31.2189 50.2021 30.9239 50.9248 30.5475V33.162H50.9352C50.9352 33.2942 50.8422 33.4468 50.8422 33.5994Z" stroke="#24306A" mask="url(#path-1-outside-1_421:149)"/>
<path d="M17.8988 35.8557C17.6878 35.307 17.0862 35.0431 16.5374 35.2436C16.5374 35.2331 16.5374 35.2331 16.5374 35.2331C14.5428 35.9929 12.2949 35.5075 10.7963 33.9983C10.4902 33.7239 10.2369 33.3968 10.047 33.0379H15.4715C16.052 33.0379 16.5269 32.563 16.5269 31.9826C16.5269 31.4021 16.052 30.9272 15.4715 30.9272H9.27657C9.21325 30.5473 9.20269 30.1568 9.24491 29.7663H16.0203C16.6007 29.7663 17.0757 29.2914 17.0757 28.711C17.0757 28.1305 16.6007 27.6556 16.0203 27.6556H9.86757C10.1209 27.2018 10.4269 26.7902 10.7857 26.4103C12.2949 24.9117 14.5428 24.4262 16.5269 25.1966C17.0757 25.4077 17.6772 25.1333 17.8883 24.5951C18.0994 24.0463 17.825 23.4448 17.2867 23.2337C14.5217 22.1678 11.3873 22.8326 9.28712 24.9328C8.50616 25.7032 7.91516 26.6319 7.54578 27.6662H6.04718C5.46673 27.6662 4.99182 28.1411 4.99182 28.7215C4.99182 29.302 5.46673 29.7769 6.04718 29.7769H7.10254C7.08143 30.1674 7.08143 30.5473 7.12364 30.9378H6.04718C5.46673 30.9378 4.99182 31.4127 4.99182 31.9931C4.99182 32.5736 5.46673 33.0485 6.04718 33.0485H7.66187C8.02069 33.9666 8.58003 34.8109 9.28712 35.5075C11.3767 37.6076 14.5111 38.2831 17.2867 37.2171C17.8355 37.0061 18.0994 36.4045 17.8988 35.8557Z" fill="#24306A"/>
</g>
<defs>
<clipPath id="clip0_421:149">
<rect width="53" height="53" fill="white"/>
</clipPath>
</defs>
</svg>
