<svg width="41" height="41" viewBox="0 0 41 41" fill="none" xmlns="http://www.w3.org/2000/svg">
<g clip-path="url(#clip0_421:156)">
<path d="M35.9292 8.17539C35.9292 7.44526 35.1877 7.23241 34.6102 7.10331V9.22654C35.254 9.18292 35.9292 8.8811 35.9292 8.17539Z" fill="#24306A"/>
<path d="M33.9664 3.65061C33.2372 3.67155 32.7644 4.1016 32.7644 4.56219C32.7644 5.09867 33.1639 5.40921 33.9673 5.56972L33.9664 3.65061Z" fill="#24306A"/>
<path d="M40.2523 6.48484C40.2523 9.78347 37.5678 12.4688 34.2674 12.4688C30.966 12.4688 28.2808 9.78334 28.2808 6.48484C28.2808 3.18542 30.9661 0.5 34.2674 0.5C37.5669 0.5 40.2523 3.18616 40.2523 6.48484ZM33.4673 2.10042C32.8847 2.18766 32.3266 2.40234 31.8772 2.76117C31.2908 3.22932 30.9158 3.9242 30.9158 4.80824C30.9158 5.56022 31.2291 6.17177 31.7798 6.62159C32.2222 6.98298 32.8034 7.22971 33.4691 7.39019V8.62002C33.4317 8.60103 33.4043 8.58202 33.3838 8.56522C33.3086 8.50343 33.2584 8.41688 33.1963 8.24789C33.1886 8.22706 33.1788 8.19918 33.1678 8.16784C33.1446 8.10178 33.1159 8.02037 33.0907 7.95732C33.0477 7.85017 32.9868 7.7191 32.8905 7.5958C32.6682 7.31114 32.3418 7.1712 31.92 7.1712C31.615 7.1712 31.3108 7.26632 31.0823 7.49511C30.8534 7.72418 30.7562 8.03128 30.7562 8.34638C30.7562 9.44816 31.7699 10.5658 33.4682 10.7843V10.9843C33.4682 11.1971 33.5467 11.4013 33.6769 11.5568C33.809 11.7144 34.0207 11.8498 34.2884 11.8498C34.5551 11.8498 34.7673 11.716 34.9005 11.5582C35.0318 11.4027 35.1111 11.198 35.1111 10.9843V10.7731C35.783 10.6767 36.3878 10.4579 36.8571 10.0825C37.4523 9.60635 37.7804 8.91654 37.7804 8.05851C37.7804 7.07734 37.394 6.40527 36.7668 5.95927C36.2909 5.62086 35.6965 5.42857 35.1111 5.28812V4.31516C35.1886 4.37615 35.261 4.45507 35.3429 4.55681C35.3611 4.57951 35.3821 4.60649 35.4052 4.63624C35.4909 4.74661 35.6063 4.89519 35.725 5.00578C35.9038 5.17245 36.1502 5.31958 36.4866 5.31958C36.7796 5.31958 37.0738 5.22013 37.2997 5.01221C37.5311 4.79915 37.6627 4.49741 37.6627 4.15574C37.6627 3.32642 36.9928 2.80565 36.4221 2.5219C36.0007 2.31236 35.5253 2.17415 35.1102 2.10598V1.98628C35.1102 1.60814 34.8223 1.12077 34.2875 1.12077C34.0207 1.12077 33.8089 1.25516 33.6763 1.41315C33.5456 1.56899 33.4673 1.7734 33.4673 1.98628V2.10042Z" fill="#24306A" stroke="#24306A"/>
<path d="M9.0239 30.7485V30.7493V39.135C9.0239 39.6138 8.63768 39.9991 8.16062 39.9991H2.56991C2.09488 39.9991 1.70723 39.6139 1.70663 39.1345V30.7493C1.70663 30.2717 2.09347 29.8852 2.56991 29.8852H8.16062C8.63841 29.8852 9.02431 30.2719 9.0239 30.7485Z" stroke="#24306A" stroke-width="2"/>
<path d="M17.019 23.3638H22.6098C23.0883 23.3638 23.4739 23.7515 23.4739 24.2253V39.1368C23.4739 39.615 23.0874 40.0009 22.6098 40.0009H17.019C16.5426 40.0009 16.1558 39.6153 16.1558 39.1368V24.2279C16.1558 23.7502 16.5426 23.3638 17.019 23.3638Z" stroke="#24306A" stroke-width="2"/>
<path d="M37.9257 16.7722V16.773V39.135C37.9257 39.6135 37.5397 39.9991 37.0615 39.9991H31.4717C30.994 39.9991 30.6075 39.6132 30.6075 39.135V16.7722C30.6075 16.296 30.9938 15.9089 31.4717 15.9089H37.0615C37.5399 15.9089 37.9261 16.2963 37.9257 16.7722Z" stroke="#24306A" stroke-width="2"/>
<path d="M25.8862 9.57116L21.2585 8.60376C20.9043 8.53048 20.5397 8.66744 20.3225 8.95618C20.1053 9.24579 20.0756 9.63397 20.2457 9.95411L21.2716 11.8828L0.752815 22.4667C0.295719 22.7031 0.11602 23.2657 0.35242 23.7211C0.518161 24.0412 0.843537 24.2253 1.18113 24.2253C1.32506 24.2253 1.47074 24.193 1.60769 24.1215L22.1456 13.5271L23.0869 15.2962C23.2491 15.6015 23.5658 15.7908 23.9095 15.7908C23.9252 15.7908 23.94 15.7899 23.9566 15.7891C24.3177 15.7708 24.6361 15.5457 24.7722 15.2107L26.5596 10.8334C26.6643 10.5769 26.6503 10.2882 26.5195 10.044C26.3877 9.80233 26.1566 9.62874 25.8862 9.57116Z" fill="#24306A"/>
</g>
<defs>
<clipPath id="clip0_421:156">
<rect width="41" height="41" fill="white"/>
</clipPath>
</defs>
</svg>
