<svg width="41" height="41" viewBox="0 0 41 41" fill="none" xmlns="http://www.w3.org/2000/svg">
<path d="M20.5 0C12.3124 0 5.65137 6.66106 5.65137 14.8486C5.65137 25.0095 18.9395 39.9264 19.5052 40.5565C20.0366 41.1483 20.9644 41.1473 21.4948 40.5565C22.0606 39.9264 35.3487 25.0095 35.3487 14.8486C35.3485 6.66106 28.6875 0 20.5 0ZM20.5 37.615C16.0279 32.3028 8.32534 21.8223 8.32534 14.8487C8.32534 8.13546 13.7868 2.67397 20.5 2.67397C27.2132 2.67397 32.6747 8.13546 32.6747 14.8486C32.6746 21.8225 24.9733 32.3011 20.5 37.615Z" fill="#24306A"/>
<path d="M20.5 7.3779C16.3806 7.3779 13.0294 10.7292 13.0294 14.8486C13.0294 18.968 16.3807 22.3194 20.5 22.3194C24.6193 22.3194 27.9706 18.968 27.9706 14.8486C27.9706 10.7292 24.6193 7.3779 20.5 7.3779ZM20.5 19.6454C17.855 19.6454 15.7033 17.4936 15.7033 14.8486C15.7033 12.2036 17.8551 10.0519 20.5 10.0519C23.1449 10.0519 25.2967 12.2036 25.2967 14.8486C25.2967 17.4936 23.1449 19.6454 20.5 19.6454Z" fill="#24306A"/>
</svg>
