<svg width="49" height="49" viewBox="0 0 49 49" fill="none" xmlns="http://www.w3.org/2000/svg">
<path d="M44.6934 15H4.30664C1.93196 15 0 16.932 0 19.3066V44.2643C0 46.639 1.93196 48.5709 4.30664 48.5709H44.6934C47.068 48.5709 49 46.639 49 44.2643V19.3066C49 16.932 47.068 15 44.6934 15ZM44.1313 17.8711L43.5565 18.3497L26.2087 32.7952C25.2185 33.6196 23.7813 33.6196 22.7913 32.7952L5.4435 18.3497L4.86871 17.8711H44.1313ZM2.87109 19.9438L17.0057 31.7137L2.87109 41.1206V19.9438ZM44.6934 45.6998H4.30664C3.61298 45.6998 3.03283 45.2052 2.8999 44.5504L19.3077 33.6305L20.9542 35.0016C21.9815 35.857 23.2408 36.2847 24.5001 36.2847C25.7594 36.2847 27.0186 35.857 28.046 35.0016L29.6925 33.6305L46.1002 44.5503C45.9672 45.2053 45.387 45.6998 44.6934 45.6998ZM46.1289 41.1206L31.9943 31.7138L46.1289 19.9438V41.1206Z" fill="#24306A"/>
</svg>
