<svg width="41" height="41" viewBox="0 0 41 41" fill="none" xmlns="http://www.w3.org/2000/svg">
<path d="M32.0312 15.0547H29.1455V8.46986C29.1455 3.79955 25.2658 0 20.497 0C15.7283 0 11.8486 3.79955 11.8486 8.46986V15.0547H8.96875C6.31945 15.0547 4.16406 17.2101 4.16406 19.8594V36.1953C4.16406 38.8446 6.31945 41 8.96875 41H32.0312C34.6806 41 36.8359 38.8446 36.8359 36.1953V19.8594C36.8359 17.2101 34.6806 15.0547 32.0312 15.0547ZM15.0517 8.46986C15.0517 5.56575 17.4945 3.20312 20.497 3.20312C23.4996 3.20312 25.9424 5.56575 25.9424 8.46986V15.0547H15.0517V8.46986ZM33.6328 36.1953C33.6328 37.0784 32.9144 37.7969 32.0312 37.7969H8.96875C8.08565 37.7969 7.36719 37.0784 7.36719 36.1953V19.8594C7.36719 18.9763 8.08565 18.2578 8.96875 18.2578H32.0312C32.9144 18.2578 33.6328 18.9763 33.6328 19.8594V36.1953Z" fill="#24306A"/>
<path d="M20.5 22.9023C18.8636 22.9023 17.5371 24.2288 17.5371 25.8652C17.5371 26.9101 18.0784 27.8279 18.8955 28.3555V31.8711C18.8955 32.7556 19.6125 33.4727 20.497 33.4727C21.3815 33.4727 22.0986 32.7556 22.0986 31.8711V28.3593C22.9189 27.8324 23.4629 26.9127 23.4629 25.8652C23.4629 24.2288 22.1364 22.9023 20.5 22.9023Z" fill="#24306A"/>
</svg>
