<svg width="42" height="42" viewBox="0 0 42 42" fill="none" xmlns="http://www.w3.org/2000/svg">
<path fill-rule="evenodd" clip-rule="evenodd" d="M38.2411 10.8964C37.8238 10.4789 37.2467 10.2197 36.6112 10.2197H26.6908V4.68267C26.6908 2.77493 25.1375 1.2218 23.2299 1.2218H6.16017C4.25257 1.2218 2.6993 2.77493 2.6993 4.68267V37.2755C2.6993 39.0999 4.19249 40.5968 6.02044 40.5968H23.3693C25.1976 40.5968 26.6903 39.1039 26.6903 37.2755V29.292H36.6111C37.2467 29.292 37.8238 29.0326 38.2411 28.6152C38.659 28.1975 38.9181 27.6206 38.9181 26.9849V12.5269C38.9181 11.8911 38.6592 11.3142 38.2411 10.8964ZM9.96364 3.529H19.4229V4.84581C19.4229 5.38791 18.9751 5.83589 18.4331 5.83589H10.9539C10.4115 5.83589 9.96411 5.38791 9.96411 4.84581V3.529H9.96364ZM24.3833 37.2755C24.3833 37.8302 23.9237 38.2898 23.3693 38.2898H6.02044C5.46756 38.2898 5.00665 37.8369 5.00665 37.2755V33.1442C5.63085 33.4828 6.34472 33.6755 7.10187 33.6755H22.2853C23.043 33.6755 23.7585 33.482 24.3833 33.1424V37.2755ZM22.2853 31.3683H7.10187C6.52018 31.3683 5.99426 31.1351 5.61529 30.7583C5.26298 30.4086 5.03545 29.9334 5.00665 29.4064V4.68267C5.00665 4.04861 5.52641 3.529 6.16017 3.529H7.65676V4.84581C7.65676 6.66174 9.13825 8.14308 10.9539 8.14308H18.4331C20.2487 8.14308 21.7302 6.66174 21.7302 4.84581V3.529H23.2298C23.8635 3.529 24.3833 4.04861 24.3833 4.68267V10.2197H13.6168C12.9812 10.2197 12.4038 10.4789 11.9863 10.8964C11.5687 11.3142 11.3094 11.8911 11.3094 12.5269V26.9849C11.3094 27.6206 11.5687 28.1975 11.9863 28.6152C12.4038 29.0326 12.9812 29.292 13.6168 29.292H24.3833C24.3833 30.4442 23.4406 31.3683 22.2853 31.3683ZM36.6111 26.9845C36.6112 26.9849 36.6116 26.9849 36.6111 26.9849C36.6111 26.9853 36.6111 26.9852 36.6111 26.9849H13.6169C13.6169 26.5521 13.6168 16.6936 13.6169 12.5269C18.7087 12.5269 36.6116 12.5269 36.6111 12.527V26.9845Z" fill="#24306A"/>
<path fill-rule="evenodd" clip-rule="evenodd" d="M14.6951 34.8675C14.0596 34.8675 13.5414 35.3856 13.5414 36.0211C13.5414 36.6564 14.0596 37.1747 14.6951 37.1747C15.3305 37.1747 15.8486 36.6564 15.8486 36.0211C15.8486 35.3856 15.3305 34.8675 14.6951 34.8675Z" fill="#24306A"/>
<path fill-rule="evenodd" clip-rule="evenodd" d="M17.0774 19.0638H17.6927C18.3298 19.0638 18.8462 18.5472 18.8462 17.9102C18.8462 17.273 18.3298 16.7566 17.6927 16.7566H17.0774C16.4406 16.7566 15.9239 17.273 15.9239 17.9102C15.9239 18.5472 16.4406 19.0638 17.0774 19.0638Z" fill="#24306A"/>
<path fill-rule="evenodd" clip-rule="evenodd" d="M17.0774 23.6778H28.3054C28.9427 23.6778 29.459 23.1615 29.459 22.5243C29.459 21.8875 28.9427 21.3708 28.3054 21.3708H17.0774C16.4406 21.3708 15.9239 21.8875 15.9239 22.5243C15.9239 23.1615 16.4406 23.6778 17.0774 23.6778Z" fill="#24306A"/>
<path fill-rule="evenodd" clip-rule="evenodd" d="M22.307 19.0638H22.922C23.5593 19.0638 24.0758 18.5472 24.0758 17.9102C24.0758 17.273 23.5593 16.7566 22.922 16.7566H22.307C21.67 16.7566 21.1532 17.273 21.1532 17.9102C21.1532 18.5472 21.67 19.0638 22.307 19.0638Z" fill="#24306A"/>
<path fill-rule="evenodd" clip-rule="evenodd" d="M27.5364 19.0638H28.1516C28.7886 19.0638 29.3052 18.5472 29.3052 17.9102C29.3052 17.273 28.7886 16.7566 28.1516 16.7566H27.5364C26.8995 16.7566 26.3828 17.273 26.3828 17.9102C26.3828 18.5472 26.8995 19.0638 27.5364 19.0638Z" fill="#24306A"/>
<path fill-rule="evenodd" clip-rule="evenodd" d="M32.7659 19.0638H33.381C34.0183 19.0638 34.5347 18.5472 34.5347 17.9102C34.5347 17.273 34.0183 16.7566 33.381 16.7566H32.7659C32.129 16.7566 31.6122 17.273 31.6122 17.9102C31.6122 18.5472 32.129 19.0638 32.7659 19.0638Z" fill="#24306A"/>
</svg>
