<svg width="41" height="41" viewBox="0 0 41 41" fill="none" xmlns="http://www.w3.org/2000/svg">
<g clip-path="url(#clip0_421:113)">
<path d="M3.62996 22.6638L0.451167 25.9406C-0.163434 26.5742 -0.148139 27.5862 0.485521 28.2008C0.796064 28.5022 1.19734 28.652 1.59837 28.652C2.01558 28.652 2.43246 28.4896 2.74581 28.1666L5.9246 24.8898C6.5392 24.2561 6.5239 23.2442 5.89024 22.6295C5.25659 22.0147 4.24464 22.0301 3.62996 22.6638Z" fill="#24306A"/>
<path d="M11.0293 23.6968C10.1466 23.6968 9.43082 24.4124 9.43082 25.2952V39.3616C9.43082 40.2443 10.1465 40.9601 11.0293 40.9601H11.0293C11.912 40.9601 12.6278 40.2444 12.6278 39.3616L12.6276 25.2951C12.6276 24.4124 11.912 23.6968 11.0293 23.6968Z" fill="#24306A"/>
<path d="M17.2632 20.1803C16.3805 20.1803 15.6648 20.8959 15.6648 21.7787V39.3616C15.6648 40.2443 16.3804 40.96 17.2632 40.96C18.146 40.96 18.8617 40.2444 18.8617 39.3616V21.7786C18.8616 20.8959 18.146 20.1803 17.2632 20.1803Z" fill="#24306A"/>
<path d="M36.2046 0.0398865H31.4093C30.5265 0.0398865 29.8109 0.755546 29.8109 1.63833C29.8109 2.52111 30.5265 3.23677 31.4093 3.23677H35.6222L23.8852 14.9714C23.5703 15.2863 23.1582 15.4654 22.7507 15.4654C22.7421 15.4654 22.7334 15.4654 22.7248 15.4652C22.3324 15.4578 21.9313 15.2779 21.6247 14.9713L19.7454 13.092C18.8254 12.172 17.6041 11.6387 16.3943 11.6287C16.3826 11.6287 16.3709 11.6287 16.3592 11.6287C15.1071 11.6287 13.8567 12.176 12.9223 13.134L9.49687 16.5749C8.87402 17.2006 8.87627 18.2126 9.50192 18.8355C9.81374 19.1459 10.2217 19.3011 10.6296 19.3011C11.0398 19.3011 11.4501 19.1441 11.7624 18.8303L15.194 15.3833C15.1988 15.3786 15.2033 15.3739 15.208 15.3692C15.5417 15.0254 15.9767 14.8215 16.3681 14.8255C16.7406 14.8285 17.1581 15.0255 17.4851 15.3525L19.3644 17.2317C20.2633 18.1308 21.4357 18.6385 22.6654 18.6614C23.9442 18.6855 25.2137 18.1642 26.1459 17.2319L37.8031 5.57698V9.55062C37.8031 10.4334 38.5187 11.1491 39.4015 11.1491C40.2843 11.1491 41 10.4334 41 9.55062V4.83521C41 2.19111 38.8488 0.0398865 36.2046 0.0398865Z" fill="#24306A"/>
<path d="M4.72077 30.8899C3.8359 30.8868 3.11688 31.6034 3.11688 32.4883V39.3616C3.11688 40.2443 3.83254 40.96 4.71532 40.96H4.7154C5.59819 40.96 6.31385 40.2444 6.31385 39.3616V32.4883C6.31377 31.6076 5.60155 30.8928 4.72077 30.8899Z" fill="#24306A"/>
<path d="M36.1248 13.7066C35.242 13.7066 34.5264 14.4223 34.5264 15.305V39.3617C34.5264 40.2444 35.242 40.9601 36.1248 40.9601H36.1249C37.0076 40.9601 37.7233 40.2445 37.7233 39.3617V15.305C37.7232 14.4222 37.0077 13.7066 36.1248 13.7066Z" fill="#24306A"/>
<path d="M23.497 22.1784C22.6142 22.1784 21.8985 22.894 21.8985 23.7768V39.3616C21.8985 40.2443 22.6142 40.9601 23.497 40.9601H23.4971C24.3798 40.9601 25.0955 40.2444 25.0955 39.3616V23.7768C25.0954 22.894 24.3798 22.1784 23.497 22.1784Z" fill="#24306A"/>
<path d="M29.8051 19.1413C28.9246 19.1445 28.2125 19.8593 28.2125 20.7398V39.3617C28.2125 40.2444 28.9282 40.9602 29.811 40.9602H29.8111C30.6938 40.9602 31.4095 40.2445 31.4095 39.3617V20.7398C31.4093 19.8546 30.6902 19.138 29.8051 19.1413Z" fill="#24306A"/>
</g>
<defs>
<clipPath id="clip0_421:113">
<rect width="41" height="41" fill="white"/>
</clipPath>
</defs>
</svg>
